<?xml version="1.0" encoding="utf-8"?>
<svg width="153px" height="100px" viewBox="0 0 153 100" version="1.1" xmlns:xlink="http://www.w3.org/1999/xlink" xmlns="http://www.w3.org/2000/svg">
  <desc>Created with Lunacy</desc>
  <g id="Group-2">
    <g id="GYMPOINT" fill="#EE4D64" transform="translate(0 64.69817)">
      <path d="M15.2657 27.9652Q17.2341 27.0102 18.2255 25.7126L18.2255 17.5184L9.87094 17.5184L9.87094 20.4636L13.9535 20.4636L13.9535 24.5753Q13.4723 25.0419 12.5902 25.3481Q11.7081 25.6543 10.1917 25.6543Q8.13587 25.6543 6.91112 24.1379Q5.68636 22.6215 5.68636 20.2158L5.68636 15.7541Q5.68636 13.3775 6.88196 11.8685Q8.07755 10.3594 10.0313 10.3594Q11.8976 10.3594 12.8745 11.2998Q13.8514 12.2403 13.8514 13.9316L17.861 13.9316L17.8902 13.8441Q17.9631 10.7676 15.8927 8.92322Q13.8222 7.0788 9.92926 7.0788Q6.19668 7.0788 3.82007 9.50644Q1.44346 11.9341 1.44346 15.7833L1.44346 20.2158Q1.44346 24.0796 3.89297 26.4999Q6.34248 28.9203 10.1917 28.9203Q13.2973 28.9203 15.2657 27.9652ZM103.025 19.9096Q103.025 23.8317 100.561 26.376Q98.097 28.9203 94.1457 28.9203Q90.209 28.9203 87.7595 26.3687Q85.31 23.8171 85.31 19.9096L85.31 16.0895Q85.31 12.1965 87.7522 9.63766Q90.1945 7.0788 94.1166 7.0788Q98.0679 7.0788 100.547 9.63766Q103.025 12.1965 103.025 16.0895L103.025 19.9096ZM29.4233 17.1684L29.3358 17.1684L24.6992 7.38499L20.0335 7.38499L27.1925 20.9302L27.1925 28.6141L31.45 28.6141L31.45 21.1489L38.7256 7.38499L34.0599 7.38499L29.4233 17.1684ZM51.8188 23.0298L51.9063 23.0298L57.3594 7.38499L62.9145 7.38499L62.9145 28.6141L58.657 28.6141L58.657 14.1211L58.5695 14.1066L53.3206 28.6141L50.4337 28.6141L45.1847 14.0774L45.0972 14.092L45.0972 28.6141L40.8397 28.6141L40.8397 7.38499L46.424 7.38499L51.8188 23.0298ZM71.0795 28.6141L71.0795 20.9156L74.9433 20.9156Q78.603 20.9156 80.7026 19.0639Q82.8022 17.2122 82.8022 14.1649Q82.8022 11.1176 80.7026 9.25128Q78.603 7.38499 74.9433 7.38499L66.822 7.38499L66.822 28.6141L71.0795 28.6141ZM106.685 28.6141L110.942 28.6141L110.942 7.38499L106.685 7.38499L106.685 28.6141ZM132.317 28.6141L128.06 28.6141L119.501 14.2961L119.414 14.3107L119.414 28.6141L115.156 28.6141L115.156 7.38499L119.414 7.38499L127.972 21.6884L128.06 21.6738L128.06 7.38499L132.317 7.38499L132.317 28.6141ZM144.958 10.6656L151.024 10.6656L151.024 7.38499L134.723 7.38499L134.723 10.6656L140.701 10.6656L140.701 28.6141L144.958 28.6141L144.958 10.6656ZM98.7823 16.0603Q98.7823 13.5817 97.543 11.9924Q96.3036 10.4031 94.1166 10.4031Q91.9587 10.4031 90.7558 11.9924Q89.5529 13.5817 89.5529 16.0603L89.5529 19.9096Q89.5529 22.432 90.7631 24.0212Q91.9733 25.6105 94.1457 25.6105Q96.3328 25.6105 97.5576 24.0212Q98.7823 22.432 98.7823 19.9096L98.7823 16.0603ZM74.9433 17.635L71.0795 17.635L71.0795 10.6656L74.9433 10.6656Q76.7367 10.6656 77.648 11.6643Q78.5593 12.6631 78.5593 14.194Q78.5593 15.6958 77.6407 16.6654Q76.7221 17.635 74.9433 17.635Z" />
    </g>
    <g id="noun_Gym_1617325" transform="translate(26.12811 0)">
      <g id="Group" transform="translate(0.5235838 0)">
        <path d="M51.3425 12.4721C52.2677 12.0263 53.3043 11.7762 54.3984 11.7762C58.293 11.7762 61.4616 14.9446 61.4616 18.8392L61.4616 33.3573C61.4616 37.2519 58.293 40.4204 54.3984 40.4204C53.3043 40.4204 52.2677 40.1704 51.3425 39.7245C51.1119 43.4124 48.0398 46.3427 44.2947 46.3427C43.1986 46.3427 42.1602 46.0919 41.2337 45.6444C40.9709 49.3011 37.9137 52.1966 34.191 52.1966C30.2964 52.1966 27.1279 49.0281 27.1279 45.1334L27.1279 35.4368L2.01133 35.4368C0.900539 35.4368 0 34.5362 0 33.4255C0 32.3147 0.900539 31.4141 2.01133 31.4141L29.1392 31.4141C30.25 31.4141 31.1505 32.3147 31.1505 33.4255L31.1505 45.1334C31.1505 46.81 32.5145 48.174 34.191 48.174C35.8676 48.174 37.2316 46.81 37.2316 45.1334L37.2316 7.06325C37.2316 5.3866 35.8676 4.02266 34.191 4.02266C32.5145 4.02266 31.1505 5.3866 31.1505 7.06325L31.1505 18.7712C31.1505 19.882 30.25 20.7825 29.1392 20.7825C28.0284 20.7825 27.1279 19.882 27.1279 18.7712L27.1279 7.06325C27.1279 3.16851 30.2964 0 34.191 0C37.9135 0 40.9707 2.89551 41.2337 6.55224C42.1602 6.10478 43.1986 5.8539 44.2947 5.8539C48.0398 5.8539 51.1119 8.78401 51.3425 12.4721ZM47.3354 39.2795C47.3354 40.9561 45.9714 42.3201 44.2948 42.3201C42.6182 42.3201 41.2542 40.9561 41.2542 39.2795L41.2542 12.9172C41.2542 11.2405 42.6182 9.87656 44.2948 9.87656C45.9714 9.87656 47.3354 11.2405 47.3354 12.9172L47.3354 39.2795ZM54.3984 36.3978C56.0749 36.3978 57.439 35.0338 57.439 33.3573L57.439 18.8392C57.439 17.1628 56.0749 15.7988 54.3984 15.7988C52.7219 15.7988 51.3579 17.1628 51.3579 18.8392L51.3579 33.3573C51.3579 35.0338 52.7219 36.3978 54.3984 36.3978Z" transform="translate(38.24298 0.04894231)" id="Shape" fill="#EE4D64" fill-rule="evenodd" stroke="none" />
        <path d="M30.3114 33.4255C30.3114 32.3147 31.2119 31.4141 32.3227 31.4141C33.4336 31.4141 34.334 32.3145 34.334 33.4253L34.334 45.1333C34.334 49.028 31.1655 52.1965 27.2708 52.1965C23.5481 52.1965 20.491 49.301 20.2281 45.6443C19.3014 46.0917 18.263 46.3426 17.167 46.3426C13.4219 46.3426 10.3498 43.4125 10.1191 39.7244C9.19391 40.1702 8.15728 40.4203 7.06325 40.4203C3.16851 40.4203 0 37.2519 0 33.3573L0 18.8394C0 14.9447 3.16851 11.7762 7.06325 11.7762C8.15728 11.7762 9.19391 12.0263 10.1191 12.4721C10.3498 8.78427 13.4219 5.8539 17.167 5.8539C18.263 5.8539 19.3015 6.10478 20.2281 6.55224C20.491 2.89551 23.5481 0 27.2708 0C31.1655 0 34.334 3.16851 34.334 7.06325L34.334 16.7599L59.4507 16.7599C60.5615 16.7599 61.462 17.6604 61.462 18.7712C61.462 19.882 60.5615 20.7825 59.4507 20.7825L32.3227 20.7825C31.2119 20.7825 30.3114 19.882 30.3114 18.7712L30.3114 7.06325C30.3114 5.3866 28.9474 4.02266 27.2708 4.02266C25.5941 4.02266 24.2302 5.3866 24.2302 7.06325L24.2302 45.1334C24.2302 46.81 25.5941 48.174 27.2708 48.174C28.9474 48.174 30.3114 46.81 30.3114 45.1334L30.3114 33.4255ZM14.1265 39.2795C14.1265 40.9561 15.4906 42.3201 17.1671 42.3201C18.8437 42.3201 20.2077 40.9561 20.2077 39.2795L20.2077 12.9172C20.2077 11.2405 18.8437 9.87656 17.1671 9.87656C15.4904 9.87656 14.1265 11.2405 14.1265 12.9172L14.1265 39.2795ZM7.06352 36.3978C5.38701 36.3978 4.02292 35.0338 4.02292 33.3575L4.02292 18.8394C4.02292 17.1628 5.38687 15.7988 7.06352 15.7988C8.74002 15.7988 10.104 17.1628 10.104 18.8394L10.104 33.3573C10.1038 35.0338 8.73989 36.3978 7.06352 36.3978Z" transform="translate(0.05698762 0.04894231)" id="Shape" fill="#EE4D64" fill-rule="evenodd" stroke="none" />
        <path d="M0 2.01133L0 2.68566C0 3.79645 0.900539 4.69699 2.01133 4.69699C3.12212 4.69699 4.02266 3.79645 4.02266 2.68566L4.02266 2.01133C4.02266 0.900539 3.12212 0 2.01133 0C0.900539 0 0 0.900539 0 2.01133Z" transform="translate(30.3626 24.2534)" id="Path" fill="#EE4D64" stroke="none" />
        <path d="M4.02266 2.68566L4.02266 2.01133C4.02266 0.900539 3.12199 0 2.01133 0C0.900405 0 0 0.900539 0 2.01133L0 2.68566C0 3.79645 0.900405 4.69699 2.01133 4.69699C3.12212 4.69699 4.02266 3.79645 4.02266 2.68566Z" transform="translate(65.37097 23.35541)" id="Path" fill="#EE4D64" stroke="none" />
      </g>
    </g>
  </g>
</svg>