<?xml version="1.0" encoding="utf-8"?>
<svg width="135px" height="24px" viewBox="0 0 135 24" version="1.1" xmlns:xlink="http://www.w3.org/1999/xlink" xmlns="http://www.w3.org/2000/svg">
  <desc>Created with Lunacy</desc>
  <g id="Group-3">
    <g id="GYMPOINT" fill="#EE4D64" transform="translate(58 3)">
      <path d="M7.66846 14.0061Q8.65723 13.5264 9.15527 12.8745L9.15527 8.7583L4.9585 8.7583L4.9585 10.2378L7.00928 10.2378L7.00928 12.3032Q6.76758 12.5376 6.32446 12.6914Q5.88135 12.8452 5.11963 12.8452Q4.08691 12.8452 3.47168 12.0835Q2.85644 11.3218 2.85645 10.1133L2.85645 7.87207Q2.85645 6.67822 3.45703 5.92017Q4.05762 5.16211 5.03906 5.16211Q5.97656 5.16211 6.46729 5.63452Q6.95801 6.10693 6.95801 6.95654L8.97217 6.95654L8.98682 6.9126Q9.02344 5.36719 7.9834 4.44067Q6.94336 3.51416 4.98779 3.51416Q3.11279 3.51416 1.91895 4.73364Q0.725098 5.95313 0.725098 7.88672L0.725098 10.1133Q0.725098 12.0542 1.95557 13.27Q3.18604 14.4858 5.11963 14.4858Q6.67969 14.4858 7.66846 14.0061ZM51.7529 9.95947Q51.7529 11.9297 50.5151 13.2078Q49.2773 14.4858 47.2925 14.4858Q45.3149 14.4858 44.0845 13.2041Q42.854 11.9224 42.854 9.95947L42.854 8.04053Q42.854 6.08496 44.0808 4.79956Q45.3076 3.51416 47.2778 3.51416Q49.2627 3.51416 50.5078 4.79956Q51.7529 6.08496 51.7529 8.04053L51.7529 9.95947ZM14.7803 8.58252L14.7363 8.58252L12.4072 3.66797L10.0635 3.66797L13.6597 10.4722L13.6597 14.332L15.7983 14.332L15.7983 10.582L19.4531 3.66797L17.1094 3.66797L14.7803 8.58252ZM26.0303 11.5269L26.0742 11.5269L28.8135 3.66797L31.604 3.66797L31.604 14.332L29.4653 14.332L29.4653 7.05176L29.4214 7.04443L26.7847 14.332L25.3345 14.332L22.6978 7.02979L22.6538 7.03711L22.6538 14.332L20.5151 14.332L20.5151 3.66797L23.3203 3.66797L26.0303 11.5269ZM35.7056 14.332L35.7056 10.4648L37.6465 10.4648Q39.4849 10.4648 40.5396 9.53467Q41.5942 8.60449 41.5942 7.07373Q41.5942 5.54297 40.5396 4.60547Q39.4849 3.66797 37.6465 3.66797L33.5669 3.66797L33.5669 14.332L35.7056 14.332ZM53.5913 14.332L55.73 14.332L55.73 3.66797L53.5913 3.66797L53.5913 14.332ZM66.4673 14.332L64.3286 14.332L60.0293 7.13965L59.9854 7.14697L59.9854 14.332L57.8467 14.332L57.8467 3.66797L59.9854 3.66797L64.2847 10.853L64.3286 10.8457L64.3286 3.66797L66.4673 3.66797L66.4673 14.332ZM72.8174 5.31592L75.8643 5.31592L75.8643 3.66797L67.6758 3.66797L67.6758 5.31592L70.6787 5.31592L70.6787 14.332L72.8174 14.332L72.8174 5.31592ZM49.6216 8.02588Q49.6216 6.78076 48.999 5.98242Q48.3765 5.18408 47.2778 5.18408Q46.1938 5.18408 45.5896 5.98242Q44.9854 6.78076 44.9854 8.02588L44.9854 9.95947Q44.9854 11.2266 45.5933 12.0249Q46.2012 12.8232 47.2925 12.8232Q48.3911 12.8232 49.0063 12.0249Q49.6216 11.2266 49.6216 9.95947L49.6216 8.02588ZM37.6465 8.81689L35.7056 8.81689L35.7056 5.31592L37.6465 5.31592Q38.5474 5.31592 39.0051 5.81763Q39.4629 6.31934 39.4629 7.08838Q39.4629 7.84277 39.0015 8.32983Q38.54 8.81689 37.6465 8.81689Z" />
    </g>
    <g id="Group-2">
      <g id="noun_Gym_1617325" transform="translate(0.05801079 0)">
        <g id="Group" transform="translate(0.2370945 0)">
          <path d="M23.2494 5.64775C23.6684 5.44586 24.1378 5.33261 24.6332 5.33261C26.3968 5.33261 27.8317 6.76735 27.8317 8.53094L27.8317 15.1052C27.8317 16.8688 26.3968 18.3036 24.6332 18.3036C24.1378 18.3036 23.6684 18.1904 23.2494 17.9885C23.145 19.6584 21.7539 20.9854 20.058 20.9854C19.5616 20.9854 19.0914 20.8718 18.6719 20.6692C18.5529 22.325 17.1685 23.6362 15.4827 23.6362C13.7191 23.6362 12.2843 22.2014 12.2843 20.4378L12.2843 16.0468L0.91079 16.0468C0.407791 16.0468 0 15.6391 0 15.1361C0 14.6331 0.407791 14.2253 0.91079 14.2253L13.1951 14.2253C13.6981 14.2253 14.1059 14.6331 14.1059 15.1361L14.1059 20.4378C14.1059 21.197 14.7235 21.8146 15.4827 21.8146C16.2419 21.8146 16.8596 21.197 16.8596 20.4378L16.8596 3.19845C16.8596 2.43922 16.2419 1.82158 15.4827 1.82158C14.7235 1.82158 14.1059 2.43922 14.1059 3.19845L14.1059 8.50016C14.1059 9.00316 13.6981 9.41095 13.1951 9.41095C12.6921 9.41095 12.2843 9.00316 12.2843 8.50016L12.2843 3.19845C12.2843 1.4348 13.7191 0 15.4827 0C17.1684 0 18.5528 1.31117 18.6719 2.96705C19.0914 2.76443 19.5616 2.65082 20.058 2.65082C21.7539 2.65082 23.145 3.97766 23.2494 5.64775ZM21.4349 17.7869C21.4349 18.5462 20.8173 19.1638 20.058 19.1638C19.2988 19.1638 18.6812 18.5462 18.6812 17.7869L18.6812 5.84928C18.6812 5.09004 19.2988 4.4724 20.058 4.4724C20.8173 4.4724 21.4349 5.09004 21.4349 5.84928L21.4349 17.7869ZM24.6332 16.482C25.3924 16.482 26.0101 15.8644 26.0101 15.1052L26.0101 8.53094C26.0101 7.77183 25.3924 7.15419 24.6332 7.15419C23.8741 7.15419 23.2564 7.77183 23.2564 8.53094L23.2564 15.1052C23.2564 15.8644 23.8741 16.482 24.6332 16.482Z" transform="translate(17.31758 0.02216256)" id="Shape" fill="#EE4D64" fill-rule="evenodd" stroke="none" />
          <path d="M13.7259 15.1361C13.7259 14.6331 14.1337 14.2253 14.6367 14.2253C15.1398 14.2253 15.5475 14.633 15.5475 15.136L15.5475 20.4377C15.5475 22.2014 14.1127 23.6362 12.349 23.6362C10.6633 23.6362 9.27895 22.325 9.15988 20.6691C8.74024 20.8717 8.27003 20.9853 7.77371 20.9853C6.07782 20.9853 4.68668 19.6585 4.58224 17.9884C4.16328 18.1903 3.69386 18.3035 3.19845 18.3035C1.4348 18.3035 0 16.8688 0 15.1052L0 8.53107C0 6.76741 1.4348 5.33261 3.19845 5.33261C3.69386 5.33261 4.16328 5.44586 4.58224 5.64775C4.68668 3.97778 6.07782 2.65082 7.77371 2.65082C8.27003 2.65082 8.7403 2.76443 9.15988 2.96705C9.27895 1.31117 10.6633 0 12.349 0C14.1127 0 15.5475 1.4348 15.5475 3.19845L15.5475 7.58937L26.9211 7.58937C27.4241 7.58937 27.8319 7.99716 27.8319 8.50016C27.8319 9.00316 27.4241 9.41095 26.9211 9.41095L14.6367 9.41095C14.1337 9.41095 13.7259 9.00316 13.7259 8.50016L13.7259 3.19845C13.7259 2.43922 13.1083 1.82158 12.349 1.82158C11.5898 1.82158 10.9722 2.43922 10.9722 3.19845L10.9722 20.4378C10.9722 21.197 11.5898 21.8146 12.349 21.8146C13.1083 21.8146 13.7259 21.197 13.7259 20.4378L13.7259 15.1361ZM6.3969 17.7869C6.3969 18.5462 7.0146 19.1638 7.77377 19.1638C8.53301 19.1638 9.15065 18.5462 9.15065 17.7869L9.15065 5.84928C9.15065 5.09004 8.53301 4.4724 7.77377 4.4724C7.01454 4.4724 6.3969 5.09004 6.3969 5.84928L6.3969 17.7869ZM3.19857 16.482C2.4394 16.482 1.8217 15.8644 1.8217 15.1053L1.8217 8.53107C1.8217 7.77183 2.43934 7.15419 3.19857 7.15419C3.95775 7.15419 4.57538 7.77183 4.57538 8.53107L4.57538 15.1052C4.57532 15.8644 3.95769 16.482 3.19857 16.482Z" transform="translate(0.02580572 0.02216256)" id="Shape" fill="#EE4D64" fill-rule="evenodd" stroke="none" />
          <path d="M0 0.91079L0 1.21615C0 1.71915 0.407791 2.12694 0.91079 2.12694C1.41379 2.12694 1.82158 1.71915 1.82158 1.21615L1.82158 0.91079C1.82158 0.407791 1.41379 0 0.91079 0C0.407791 0 0 0.407791 0 0.91079Z" transform="translate(13.7491 10.98267)" id="Path" fill="#EE4D64" stroke="none" />
          <path d="M1.82158 1.21615L1.82158 0.91079C1.82158 0.407791 1.41373 0 0.91079 0C0.407731 0 0 0.407791 0 0.91079L0 1.21615C0 1.71915 0.407731 2.12694 0.91079 2.12694C1.41379 2.12694 1.82158 1.71915 1.82158 1.21615Z" transform="translate(29.60195 10.57603)" id="Path" fill="#EE4D64" stroke="none" />
        </g>
      </g>
    </g>
  </g>
</svg>